<?xml version="1.0" encoding="UTF-8"?>
<svg width="94px" height="115px" viewBox="0 0 94 115" version="1.1" xmlns="http://www.w3.org/2000/svg" xmlns:xlink="http://www.w3.org/1999/xlink">
    <title>logo</title>
    <g id="Page-1" stroke="none" stroke-width="1" fill="none" fill-rule="evenodd">
        <g id="logo" transform="translate(0.4958, 0.5502)">
            <path d="M46.6068904,93.2515097 L25.6386084,113.733792 C31.8728833,75.2332381 38.3747523,37.6239623 45.1442153,0.905964495 C45.2434967,0.324729903 45.8877621,0 46.6068904,0 C47.279205,0 47.7626617,0.311058028 47.9271011,0.905964495 C54.8028105,37.7348407 61.4404933,75.3441166 67.8401497,113.733792 L46.6068904,93.2515097 Z" id="Path" fill="#F01931"></path>
            <path d="M80.4892294,80.4252536 L93.2154656,47.1137881 C91.4502693,44.3578075 87.3831512,40.6454685 81.0141115,35.9767711 C74.6450718,31.3080737 67.640368,28.5780168 60,27.7866003 L80.4892294,80.4252536 Z" id="Path-2" fill="#0262AE"></path>
            <path d="M20.4892294,80.4252536 L33.2154656,47.1137881 C31.4502693,44.3578075 27.3831512,40.6454685 21.0141115,35.9767711 C14.6450718,31.3080737 7.64036796,28.5780168 0,27.7866003 L20.4892294,80.4252536 Z" id="Path-2-Copy" fill="#0262AE" transform="translate(16.6077, 54.1059) scale(-1, 1) translate(-16.6077, -54.1059)"></path>
            <path d="M12.427896,31.8443987 C17.269016,26.4428555 21.9702128,22.6846541 26.5314867,20.5697946 C31.0927605,18.454935 34.7624268,17.2722626 37.5404856,17.0217771 L40.6350773,9.00714486 C37.4483126,9.45246229 32.9023077,11.6100324 26.9970626,15.4798552 C21.0918176,19.3496781 16.2354287,24.8045259 12.427896,31.8443987 Z" id="Path-3" fill="#231F20"></path>
            <path d="M52.427896,31.8443987 C57.269016,26.4428555 61.9702128,22.6846541 66.5314867,20.5697946 C71.0927605,18.454935 74.7624268,17.2722626 77.5404856,17.0217771 L80.6350773,9.00714486 C77.4483126,9.45246229 72.9023077,11.6100324 66.9970626,15.4798552 C61.0918176,19.3496781 56.2354287,24.8045259 52.427896,31.8443987 Z" id="Path-3" fill="#231F20" transform="translate(66.5315, 20.4258) scale(-1, 1) translate(-66.5315, -20.4258)"></path>
        </g>
    </g>
</svg>